<?xml version="1.0" encoding="iso-8859-1"?>
<!-- Generator: Adobe Illustrator 12.0.1, SVG Export Plug-In . SVG Version: 6.00 Build 51448)  -->
<!DOCTYPE svg PUBLIC "-//W3C//DTD SVG 1.1//EN" "http://www.w3.org/Graphics/SVG/1.1/DTD/svg11.dtd" [
	<!ENTITY ns_svg "http://www.w3.org/2000/svg">
	<!ENTITY ns_xlink "http://www.w3.org/1999/xlink">
]>
<svg  version="1.1" id="Layer_1" xmlns="&ns_svg;" xmlns:xlink="&ns_xlink;" width="122.2" height="300" viewBox="0 0 122.2 300"
	 style="overflow:visible;enable-background:new 0 0 122.2 300;" xml:space="preserve">
<path style="fill:#FFD400;stroke:#000000;stroke-width:3.6197;" d="M61.1,1.8c5.4,0,10,4.5,10,4.5c9.5,9.5,0,19,0,19v10l29,16.3
	c8.5,38.2-7.2,42.5-7.2,42.5H81.9v84.2c-20.8,32.6-2.7,34.4-2.7,34.4s26.2-5.4,20.8,20.8c0,0,14.9,7.7,5.4,17.2V266
	c0,0,13.9-3.2,14.9,12.7c1.5,22.4-55.7,19.3-60.2,19.3c-4.5,0-59.5-0.9-58.4-19.3C2.8,262.8,16.8,266,16.8,266v-15.4
	c-9.5-9.5,5.4-17.2,5.4-17.2C16.8,207.2,43,212.7,43,212.7s18.1-1.8-2.7-34.4V94.1H29.4c0,0-14.3,2-7.2-42.5l29-16.3v-10
	c0,0-9.5-9.5,0-19C51.1,6.3,55.7,1.8,61.1,1.8"/>
</svg>
